<?xml version="1.0" standalone="no"?><!DOCTYPE svg PUBLIC "-//W3C//DTD SVG 1.1//EN" "http://www.w3.org/Graphics/SVG/1.1/DTD/svg11.dtd"><svg t="1737077301880" class="icon" viewBox="0 0 1024 1024" version="1.1" xmlns="http://www.w3.org/2000/svg" p-id="18136" width="128" height="128" xmlns:xlink="http://www.w3.org/1999/xlink"><path d="M182.352141 883.864356c0 13.644765-2.567475 26.226315-7.696286 37.740556-5.133927 11.514241-12.175297 20.467147-21.123087 26.856671-8.951883 6.384407-18.546402 9.576099-28.779464 9.576099-16.2061 0-29.855982-7.246031-40.932248-21.739117-11.082406-14.487969-16.622586-31.967062-16.618493-52.43421L67.202565 138.088008c0-20.466124 5.536087-37.945217 16.618493-52.43421 11.076266-14.492062 24.726148-21.739117 40.932248-21.739117 16.21224 0 29.855982 7.247054 40.937364 21.739117 11.076266 14.488992 16.617469 31.968086 16.617469 52.43421l0 745.776348L182.352141 883.864356zM833.44606 456.638111c-11.952216 1.718131-39.240723 9.18315-81.865519 22.390963-42.62582 13.211906-82.920548 24.726148-120.879068 34.547841-37.95852 9.822716-62.055334 13.452383-72.288396 10.890025-6.822382-1.718131-11.719926-6.196119-14.693654-13.425777-2.974751-7.233752-4.897543-14.69877-5.773494-22.395056-0.873903-7.697309-6.209422-14.737656-16.004509-21.122063s-24.927739-9.577123-45.397956-9.577123c-75.891458 0-149.654438 12.796444-221.285872 38.396495-0.848321 0.844228-2.335185 1.486864-4.461615 1.924839-2.1295 0.431835-4.053316 0.856507-5.77247 1.2689-1.723248 0.406253-3.847631 0.624217-6.384407 0.651846-2.540869 0.030699-4.88424-0.393973-7.045463-1.2689-2.156106-0.870834-4.285606-2.156106-6.384407-3.844561-2.098801-1.692548-3.805676-4.260024-5.117554-7.696286-1.310855-3.441379-2.593058-7.713682-3.847631-12.812817-1.25048-5.104251-1.893116-10.640338-1.924839-16.618493L214.319204 196.990536c0-17.054421 4.273327-32.18605 12.81384-45.393863 8.53949-13.20986 17.492396-22.37766 26.850531-27.511587l12.812817-6.384407c5.978155-3.411703 14.505365-7.247054 25.583678-11.500938 11.081383-4.254907 34.740222-10.234085 70.980611-17.930371s74.404594-11.527544 114.489544-11.500938c18.773576 0 32.841989 2.987031 42.205241 8.964162 9.358135 5.978155 14.475689 12.800537 15.349593 20.467147 0.86981 7.665587 2.794649 15.130605 5.77247 22.390963 2.973728 7.263427 8.733918 11.737322 17.270339 13.429871 11.952216 3.411703 38.821167 0.638543 80.596619-8.31334 41.780569-8.951883 80.588433-18.965957 116.417453-30.043247l53.746088-15.349593c20.466124-5.129834 36.240389-5.990434 47.317679-2.580778 11.08036 3.415796 18.323321 10.020214 21.739117 19.815301 3.41068 9.79611 5.116531 27.069519 5.116531 51.822272l0 227.714282c0 11.081383-0.642636 20.466124-1.924839 28.16241-1.281179 7.692193-5.977132 16.001439-14.081717 24.927739-8.107655 8.9263-19.403932 15.105023-33.891901 18.541285L833.44606 456.638111zM833.44606 456.638111" p-id="18137"></path></svg>