<?xml version="1.0" standalone="no"?><!DOCTYPE svg PUBLIC "-//W3C//DTD SVG 1.1//EN" "http://www.w3.org/Graphics/SVG/1.1/DTD/svg11.dtd"><svg t="1737613165135" class="icon" viewBox="0 0 1024 1024" version="1.1" xmlns="http://www.w3.org/2000/svg" p-id="5366" width="32" height="32" xmlns:xlink="http://www.w3.org/1999/xlink"><path d="M512.032 0C229.28 0 0 229.184 0 511.984 0 794.768 229.264 1024 512.032 1024 794.784 1024 1024 794.768 1024 511.984 1024 229.184 794.784 0 512.032 0z m368.224 570.08H505.76c-7.92 0-15.52-1.568-22.496-4.528A57.856 57.856 0 0 1 448 512.32V137.824a57.824 57.824 0 1 1 115.664 0v316.608h316.592a57.808 57.808 0 0 1 57.824 57.824 57.808 57.808 0 0 1-57.824 57.824z" fill="#000000" p-id="5367"></path></svg>