<?xml version="1.0" standalone="no"?><!DOCTYPE svg PUBLIC "-//W3C//DTD SVG 1.1//EN" "http://www.w3.org/Graphics/SVG/1.1/DTD/svg11.dtd"><svg t="1737613529286" class="icon" viewBox="0 0 1024 1024" version="1.1" xmlns="http://www.w3.org/2000/svg" p-id="9111" width="32" height="32" xmlns:xlink="http://www.w3.org/1999/xlink"><path d="M511.942656 0C229.18144 0 0 229.18144 0 511.942656S229.29408 1024 512.057344 1024 1024 794.81856 1024 511.942656C1024 229.18144 794.81856 0 511.942656 0z m205.072384 706.277376a45.094912 45.094912 0 0 1-34.953216 16.56832c-10.057728 0-20.11136-3.313664-28.561408-10.170368l-177.084416-144.861184a44.945408 44.945408 0 0 1-16.56832-34.850816V321.376256c0-24.901632 20.221952-45.125632 45.129728-45.125632 24.901632 0 45.123584 20.224 45.123584 45.125632v190.109696l160.632832 131.385344c19.195904 15.765504 22.050816 44.21632 6.281216 63.40608z m0 0" p-id="9112"></path></svg>