<?xml version="1.0" standalone="no"?><!DOCTYPE svg PUBLIC "-//W3C//DTD SVG 1.1//EN" "http://www.w3.org/Graphics/SVG/1.1/DTD/svg11.dtd"><svg t="1737077454992" class="icon" viewBox="0 0 1025 1024" version="1.1" xmlns="http://www.w3.org/2000/svg" p-id="24919" width="128.125" height="128" xmlns:xlink="http://www.w3.org/1999/xlink"><path d="M959.185455 978.294949H70.76202S0 989.310707 0 894.952727V132.331313s1.577374-84.906667 88.061414-84.906667h311.337374s37.740606-7.86101 69.197576 40.882425c29.866667 47.17899 47.166061 77.045657 47.16606 77.045656s11.002828 12.580202 36.163233 12.580202H952.888889s70.76202-7.86101 70.76202 70.76202v650.989899s11.002828 78.610101-64.465454 78.610101z m-66.055758-597.514343c0-18.863838-15.72202-34.598788-34.585859-34.598788H166.671515c-20.441212 0-36.163232 15.72202-36.163232 34.598788v3.141818c0 20.441212 15.72202 36.163232 36.163232 36.163233h691.872323c18.863838 0 34.585859-15.72202 34.585859-36.163233v-3.141818z m0 0" p-id="24920" fill="#000000"></path></svg>