<?xml version="1.0" standalone="no"?><!DOCTYPE svg PUBLIC "-//W3C//DTD SVG 1.1//EN" "http://www.w3.org/Graphics/SVG/1.1/DTD/svg11.dtd"><svg t="1737612935633" class="icon" viewBox="0 0 1024 1024" version="1.1" xmlns="http://www.w3.org/2000/svg" p-id="3524" width="32" height="32" xmlns:xlink="http://www.w3.org/1999/xlink"><path d="M90.009911 483.873972v360.106547a90.282637 90.282637 0 0 0 90.043704 90.00957h652.629115a90.282637 90.282637 0 0 0 90.043704-90.043704v-360.106546h90.00957v405.128398A134.724222 134.724222 0 0 1 877.704582 1023.999659H135.031763A134.724222 134.724222 0 0 1 0.000341 888.968237V483.873972h90.00957z m312.285763 0l50.619716 12.936529a258.662314 258.662314 0 0 1-14.062928 34.303989h237.431387v48.40105h-120.388226v50.65385h110.830896v46.114118h-110.830896v63.590379h143.462352v47.78665h-143.462352v90.043704h-51.78025v-90.00957H315.085036v-47.820784h66.389312v-109.704497h122.641025v-50.65385h-90.00957c-17.442128 29.832523-37.137054 56.831981-56.831981 76.526908-9.55733-8.430931-30.958923-25.326925-43.349319-32.085323 37.717321-32.085323 70.348777-85.503971 88.371171-140.083153z m101.819699 192.409536h-72.567442v63.590379h72.567442v-63.590379zM180.053615 78.779707v101.273566a78.984507 78.984507 0 0 0 78.745573 78.745574A78.984507 78.984507 0 0 0 337.578895 180.053273V78.779707h337.578555v101.273566a78.984507 78.984507 0 0 0 78.779707 78.745574 78.984507 78.984507 0 0 0 78.779707-78.745574V78.779707h44.987718a134.724222 134.724222 0 0 1 135.031422 135.031422v202.547132H0.000341V213.811129a134.724222 134.724222 0 0 1 135.031422-135.031422h45.021852zM258.799188 0c30.958923 0 56.285848 25.326925 56.285848 56.251715v123.801558c0 30.92479-25.326925 56.251715-56.285848 56.251715a56.422381 56.422381 0 0 1-56.251714-56.251715V56.251715C202.547474 25.326925 227.874399 0 258.799188 0z m495.137969 0c30.958923 0 56.251715 25.326925 56.251714 56.251715v123.801558c0 30.92479-25.292792 56.251715-56.251714 56.251715a56.422381 56.422381 0 0 1-56.251715-56.251715V56.251715C697.685442 25.326925 722.9441 0 753.937157 0z" fill="#402B2B" p-id="3525"></path></svg>