<?xml version="1.0" standalone="no"?><!DOCTYPE svg PUBLIC "-//W3C//DTD SVG 1.1//EN" "http://www.w3.org/Graphics/SVG/1.1/DTD/svg11.dtd"><svg t="1737614636796" class="icon" viewBox="0 0 1024 1024" version="1.1" xmlns="http://www.w3.org/2000/svg" p-id="11135" width="32" height="32" xmlns:xlink="http://www.w3.org/1999/xlink"><path d="M650.7 360.8c-15.6-6.9-38.3-10.3-68.2-10.3h-77.1v273h63.7v-94.3h29.5c31.1 0 56-8.2 74.7-24.7 18.6-16.5 28-38 28-64.8 0-17.6-4.6-33.4-13.7-47.5-9-14-21.4-24.5-36.9-31.4z m-49.4 108.3h-33.4v-54.3h36.3c23.4 0 35.2 8.8 35.2 26.3-0.1 18.6-12.7 28-38.1 28zM370.2 623.6h62.4v-273h-62.4v273zM924.8 336c-22.6-53.3-54.9-101.4-96.1-142.5-41.2-41.2-89.2-73.6-142.5-96.1C631 74 572.2 62.2 511.7 62.2S392.4 74 337.2 97.5c-53.3 22.6-101.4 54.9-142.5 96.1S121.1 282.7 98.6 336c-23.4 55.2-35.2 114-35.2 174.5S75.2 629.8 98.6 685c22.6 53.3 54.9 101.4 96.1 142.5 41.2 41.2 89.2 73.6 142.5 96.1 55.2 23.4 114 35.2 174.5 35.2S631 947 686.2 923.6c53.3-22.6 101.4-54.9 142.5-96.1s73.6-89.2 96.1-142.5c23.4-55.2 35.2-114 35.2-174.5S948.3 391.3 924.8 336z m-131 316.4c0 41.1-33.6 74.8-74.8 74.8H304.2c-41.1 0-74.8-33.6-74.8-74.8V316.3c0-41.1 33.6-74.8 74.8-74.8h414.9c41.1 0 74.8 33.6 74.8 74.8l-0.1 336.1z" p-id="11136"></path></svg>