<?xml version="1.0" standalone="no"?><!DOCTYPE svg PUBLIC "-//W3C//DTD SVG 1.1//EN" "http://www.w3.org/Graphics/SVG/1.1/DTD/svg11.dtd"><svg t="1737077199649" class="icon" viewBox="0 0 1024 1024" version="1.1" xmlns="http://www.w3.org/2000/svg" p-id="14131" width="128" height="128" xmlns:xlink="http://www.w3.org/1999/xlink"><path d="M201.143 58.514V716.8S332.8 555.886 537.6 643.657c80.457 43.886 153.6 109.714 277.943 109.714 124.343 0 204.8-73.142 204.8-73.142V43.886s-182.857 182.857-409.6 29.257C552.229 29.257 449.829-14.63 369.37 7.314c-87.771 21.943-168.228 51.2-168.228 51.2M54.857 1024c-29.257 0-51.2-21.943-51.2-58.514V51.2C3.657 21.943 25.6 0 54.857 0s51.2 21.943 51.2 51.2v914.286c7.314 36.571-14.628 58.514-51.2 58.514z" p-id="14132"></path></svg>